<svg width="512" height="512" viewBox="0 0 512 512" fill="none" xmlns="http://www.w3.org/2000/svg">
<g clip-path="url(#clip0_74_12)">
<path d="M256 0C114.758 0 0 114.758 0 256C0 397.241 114.758 511.999 256 511.999C397.241 511.999 511.999 397.241 511.999 256C511.999 114.758 397.241 0 256 0ZM256 459.034C143.889 459.034 52.9646 368.11 52.9646 256C52.9646 143.889 143.889 52.9646 256 52.9646C368.109 52.9646 459.034 143.889 459.034 256C459.034 368.11 368.11 459.034 256 459.034Z" fill="#2616F8"/>
<path d="M238.345 71.5032H264.828V124.469H238.345V71.5032ZM379.587 239.228H432.552V265.711H379.587V239.228ZM70.6206 239.228H123.586V265.711H70.6206V239.228ZM238.345 380.469H264.828V433.435H238.345V380.469Z" fill="#2616F8"/>
<path d="M346.483 142.124C354.283 142.124 360.607 135.8 360.607 128C360.607 120.199 354.283 113.876 346.483 113.876C338.682 113.876 332.358 120.199 332.358 128C332.358 135.8 338.682 142.124 346.483 142.124Z" fill="#2616F8"/>
<path d="M390.621 195.089C398.422 195.089 404.745 188.766 404.745 180.965C404.745 173.165 398.422 166.841 390.621 166.841C382.821 166.841 376.497 173.165 376.497 180.965C376.497 188.766 382.821 195.089 390.621 195.089Z" fill="#2616F8"/>
<path d="M116.965 353.986C124.766 353.986 131.09 347.662 131.09 339.862C131.09 332.061 124.766 325.738 116.965 325.738C109.165 325.738 102.841 332.061 102.841 339.862C102.841 347.662 109.165 353.986 116.965 353.986Z" fill="#2616F8"/>
<path d="M161.104 406.951C168.904 406.951 175.228 400.628 175.228 392.827C175.228 385.027 168.904 378.703 161.104 378.703C153.303 378.703 146.979 385.027 146.979 392.827C146.979 400.628 153.303 406.951 161.104 406.951Z" fill="#2616F8"/>
<path d="M386.207 358.4C394.007 358.4 400.331 352.077 400.331 344.276C400.331 336.476 394.007 330.152 386.207 330.152C378.406 330.152 372.083 336.476 372.083 344.276C372.083 352.077 378.406 358.4 386.207 358.4Z" fill="#2616F8"/>
<path d="M333.241 402.538C341.041 402.538 347.365 396.214 347.365 388.414C347.365 380.613 341.041 374.29 333.241 374.29C325.44 374.29 319.117 380.613 319.117 388.414C319.117 396.214 325.44 402.538 333.241 402.538Z" fill="#2616F8"/>
<path d="M121.379 181.848C129.18 181.848 135.503 175.524 135.503 167.724C135.503 159.923 129.18 153.6 121.379 153.6C113.578 153.6 107.255 159.923 107.255 167.724C107.255 175.524 113.578 181.848 121.379 181.848Z" fill="#2616F8"/>
<path d="M174.344 137.71C182.145 137.71 188.468 131.387 188.468 123.586C188.468 115.786 182.145 109.462 174.344 109.462C166.544 109.462 160.22 115.786 160.22 123.586C160.22 131.387 166.544 137.71 174.344 137.71Z" fill="#2616F8"/>
<path d="M332.358 265.71C332.358 258.207 326.62 252.468 319.117 252.468H264.826V153.6C264.826 146.096 259.088 140.358 251.585 140.358C244.082 140.358 238.343 146.096 238.343 153.6V265.71C238.343 273.213 244.082 278.952 251.585 278.952H319.116C326.62 278.952 332.358 273.213 332.358 265.71Z" fill="#2616F8"/>
</g>
<defs>
<clipPath id="clip0_74_12">
<rect width="512" height="512" fill="white"/>
</clipPath>
</defs>
</svg>
