<svg width="512" height="512" viewBox="0 0 512 512" fill="none" xmlns="http://www.w3.org/2000/svg">
<g clip-path="url(#clip0_74_2)">
<path d="M494.315 162.784L405.334 130.432V62.7839C405.334 48.0212 399.467 33.8559 389.024 23.4239C387.689 22.0932 385.88 21.3459 383.995 21.3459C382.11 21.3459 380.301 22.0932 378.966 23.4239C373.795 28.5921 369.694 34.7281 366.896 41.4816C364.097 48.235 362.657 55.4736 362.656 62.7839V130.432L273.675 162.784C271.617 163.533 269.84 164.897 268.584 166.69C267.329 168.484 266.656 170.621 266.656 172.811V185.664C266.656 187.147 266.965 188.613 267.563 189.97C268.162 191.326 269.036 192.543 270.131 193.543C271.226 194.543 272.518 195.303 273.923 195.776C275.328 196.248 276.817 196.423 278.294 196.288L362.656 188.619V244.277C362.656 254.325 363.222 264.352 364.32 274.315L335.83 291.403C334.252 292.35 332.946 293.69 332.04 295.292C331.133 296.894 330.657 298.703 330.656 300.544V314.667C330.657 315.455 330.832 316.234 331.17 316.947C331.508 317.66 331.999 318.289 332.609 318.789C333.219 319.289 333.933 319.647 334.698 319.838C335.463 320.029 336.261 320.048 337.035 319.893L375.616 312.171C381.14 311.061 386.829 311.061 392.352 312.171L430.934 319.893C431.707 320.048 432.505 320.029 433.27 319.838C434.036 319.647 434.749 319.289 435.359 318.789C435.969 318.289 436.461 317.66 436.799 316.947C437.136 316.234 437.312 315.455 437.312 314.667V300.544C437.314 298.702 436.837 296.891 435.928 295.288C435.02 293.686 433.71 292.347 432.128 291.403L403.638 274.315C404.742 264.34 405.297 254.313 405.302 244.277V188.619L489.664 196.288C491.141 196.423 492.629 196.248 494.035 195.776C495.44 195.303 496.732 194.543 497.827 193.543C498.922 192.543 499.796 191.326 500.395 189.97C500.993 188.613 501.302 187.147 501.302 185.664V172.811C501.302 170.621 500.629 168.484 499.373 166.69C498.118 164.897 496.34 163.533 494.283 162.784H494.315Z" fill="#EFF3F9"/>
<path d="M376.854 291.605L330.667 308.032V314.667C330.667 315.455 330.843 316.234 331.181 316.947C331.518 317.66 332.01 318.289 332.62 318.789C333.23 319.289 333.944 319.647 334.709 319.838C335.474 320.029 336.272 320.048 337.046 319.893L375.627 312.171C381.151 311.061 386.839 311.061 392.363 312.171L430.944 319.893C431.718 320.048 432.516 320.029 433.281 319.838C434.046 319.647 434.76 319.289 435.37 318.789C435.98 318.289 436.472 317.66 436.809 316.947C437.147 316.234 437.323 315.455 437.323 314.667V308.032L391.136 291.605C386.513 289.963 381.466 289.963 376.843 291.605H376.854ZM278.304 196.277L362.667 188.608V244.267C362.667 254.315 363.232 264.341 364.331 274.304L366.208 267.467C370.23 252.779 372.267 237.621 372.267 222.389V174.848C372.268 173.669 372.014 172.504 371.523 171.433C371.032 170.361 370.316 169.408 369.422 168.64C368.529 167.871 367.48 167.304 366.347 166.978C365.214 166.652 364.024 166.575 362.859 166.752L266.667 181.323V185.643C266.667 187.125 266.976 188.592 267.574 189.949C268.172 191.305 269.047 192.522 270.142 193.522C271.237 194.522 272.528 195.282 273.934 195.755C275.339 196.227 276.828 196.412 278.304 196.277ZM489.696 196.277L405.334 188.608V244.267C405.334 254.315 404.768 264.341 403.67 274.304L401.792 267.467C397.771 252.778 395.733 237.618 395.734 222.389V174.848C395.734 169.835 400.192 166.005 405.142 166.752L501.334 181.323V185.643C501.334 187.125 501.025 188.592 500.427 189.949C499.828 191.305 498.954 192.522 497.859 193.522C496.764 194.522 495.472 195.282 494.067 195.755C492.661 196.227 491.173 196.412 489.696 196.277Z" fill="#B6CAE5"/>
<path d="M238.315 333.451L149.333 301.099V233.451C149.333 218.688 143.467 204.523 133.024 194.091C131.688 192.76 129.88 192.013 127.995 192.013C126.109 192.013 124.301 192.76 122.965 194.091C117.795 199.259 113.694 205.395 110.896 212.148C108.097 218.902 106.657 226.14 106.656 233.451V301.099L17.6747 333.451C15.6171 334.199 13.8398 335.563 12.5842 337.357C11.3285 339.151 10.6553 341.288 10.656 343.477V356.331C10.6558 357.813 10.9647 359.28 11.563 360.637C12.1613 361.993 13.0359 363.21 14.131 364.21C15.226 365.21 16.5175 365.97 17.9229 366.443C19.3283 366.915 20.8168 367.09 22.2933 366.955L106.656 359.285V414.944C106.656 424.992 107.221 435.019 108.32 444.981L79.8293 462.069C78.2516 463.017 76.946 464.357 76.0395 465.959C75.133 467.561 74.6564 469.37 74.656 471.211V485.333C74.6565 486.122 74.8319 486.901 75.1696 487.614C75.5073 488.326 75.999 488.955 76.6091 489.455C77.2192 489.955 77.9325 490.314 78.6978 490.505C79.4631 490.696 80.2612 490.715 81.0347 490.56L119.616 482.837C125.14 481.728 130.828 481.728 136.352 482.837L174.933 490.56C175.707 490.715 176.505 490.696 177.27 490.505C178.035 490.314 178.749 489.955 179.359 489.455C179.969 488.955 180.461 488.326 180.798 487.614C181.136 486.901 181.312 486.122 181.312 485.333V471.211C181.314 469.368 180.837 467.557 179.928 465.955C179.019 464.352 177.71 463.014 176.128 462.069L147.637 444.981C148.742 435.007 149.297 424.979 149.301 414.944V359.285L233.664 366.955C235.141 367.09 236.629 366.915 238.034 366.443C239.44 365.97 240.731 365.21 241.826 364.21C242.921 363.21 243.796 361.993 244.394 360.637C244.993 359.28 245.302 357.813 245.301 356.331V343.477C245.302 341.288 244.629 339.151 243.373 337.357C242.118 335.563 240.34 334.199 238.283 333.451H238.315Z" fill="#EFF3F9"/>
<path d="M120.853 462.272L74.6667 478.698V485.333C74.6671 486.122 74.8426 486.901 75.1803 487.614C75.518 488.326 76.0096 488.955 76.6197 489.455C77.2298 489.955 77.9432 490.314 78.7085 490.505C79.4738 490.696 80.2719 490.714 81.0453 490.56L119.627 482.837C125.15 481.728 130.839 481.728 136.363 482.837L174.944 490.56C175.717 490.714 176.516 490.696 177.281 490.505C178.046 490.314 178.76 489.955 179.37 489.455C179.98 488.955 180.471 488.326 180.809 487.614C181.147 486.901 181.322 486.122 181.323 485.333V478.698L135.136 462.272C130.513 460.629 125.476 460.629 120.853 462.272ZM22.2933 366.944L106.667 359.275V414.933C106.667 424.981 107.232 435.008 108.331 444.971L110.197 438.144C114.219 423.452 116.256 408.288 116.256 393.056V345.525C116.257 344.346 116.003 343.181 115.512 342.11C115.021 341.038 114.305 340.086 113.411 339.317C112.518 338.548 111.469 337.981 110.336 337.655C109.203 337.33 108.013 337.252 106.848 337.429L10.656 352V356.32C10.6559 357.802 10.9646 359.267 11.5622 360.623C12.1599 361.979 13.0335 363.195 14.1274 364.195C15.2212 365.194 16.5114 365.955 17.9155 366.428C19.3196 366.902 20.8176 367.077 22.2933 366.944ZM233.696 366.944L149.333 359.275V414.933C149.333 424.981 148.768 435.008 147.669 444.971L145.792 438.133C141.771 423.445 139.733 408.285 139.733 393.056V345.514C139.733 340.501 144.192 336.672 149.141 337.419L245.333 351.989V356.309C245.334 357.792 245.025 359.258 244.426 360.615C243.828 361.972 242.953 363.189 241.858 364.188C240.763 365.188 239.472 365.949 238.066 366.421C236.661 366.894 235.173 367.079 233.696 366.944Z" fill="#B6CAE5"/>
<path d="M208 256H197.334C194.505 256 191.792 254.876 189.791 252.876C187.791 250.875 186.667 248.162 186.667 245.333C186.667 242.504 187.791 239.791 189.791 237.791C191.792 235.79 194.505 234.667 197.334 234.667H208C210.829 234.667 213.542 235.79 215.543 237.791C217.543 239.791 218.667 242.504 218.667 245.333C218.667 248.162 217.543 250.875 215.543 252.876C213.542 254.876 210.829 256 208 256ZM261.334 256H250.667C247.838 256 245.125 254.876 243.125 252.876C241.124 250.875 240 248.162 240 245.333C240 242.504 241.124 239.791 243.125 237.791C245.125 235.79 247.838 234.667 250.667 234.667H261.334C264.163 234.667 266.876 235.79 268.876 237.791C270.877 239.791 272 242.504 272 245.333C272 248.162 270.877 250.875 268.876 252.876C266.876 254.876 264.163 256 261.334 256ZM314.667 256H304C301.171 256 298.458 254.876 296.458 252.876C294.457 250.875 293.334 248.162 293.334 245.333C293.334 242.504 294.457 239.791 296.458 237.791C298.458 235.79 301.171 234.667 304 234.667H314.667C317.496 234.667 320.209 235.79 322.209 237.791C324.21 239.791 325.334 242.504 325.334 245.333C325.334 248.162 324.21 250.875 322.209 252.876C320.209 254.876 317.496 256 314.667 256Z" fill="#08105E"/>
<path d="M432.021 330.656C430.965 330.656 429.92 330.56 428.875 330.347L390.272 322.624C386.132 321.792 381.868 321.792 377.728 322.624L339.136 330.347C336.815 330.817 334.418 330.764 332.121 330.19C329.823 329.616 327.683 328.536 325.856 327.029C324.023 325.531 322.546 323.643 321.533 321.503C320.52 319.363 319.996 317.024 320 314.656V300.533C320 293.088 323.968 286.08 330.357 282.24L353.056 268.619C352.359 260.516 352.007 252.388 352 244.256V200.277L279.275 206.891C273.333 207.392 267.371 205.429 262.955 201.397C258.539 197.365 256.011 191.616 256.011 185.643V172.789C256.011 163.851 261.653 155.787 270.059 152.747L352.011 122.944V62.7733C352.011 45.0559 358.901 28.3946 371.435 15.8719C374.773 12.55 379.291 10.6851 384 10.6851C388.71 10.6851 393.227 12.55 396.565 15.8719C402.748 22.0165 407.649 29.327 410.985 37.3798C414.321 45.4326 416.026 54.0675 416 62.7839V122.955L497.952 152.757C502.063 154.259 505.615 156.986 508.127 160.57C510.639 164.154 511.991 168.423 512 172.8V185.653C512 191.637 509.472 197.376 505.056 201.408C502.861 203.399 500.279 204.915 497.47 205.86C494.662 206.806 491.688 207.16 488.736 206.901L416.011 200.288V244.267C416.011 252.341 415.659 260.501 414.955 268.629L437.653 282.251C444.043 286.091 448.011 293.099 448.011 300.544V314.667C448.011 319.477 445.877 323.989 442.155 327.04C439.264 329.408 435.701 330.667 432.032 330.667L432.021 330.656ZM362.667 177.92C365.495 177.923 368.206 179.047 370.206 181.047C372.206 183.047 373.331 185.759 373.333 188.587V244.245C373.333 253.813 373.877 263.52 374.933 273.109C375.392 277.259 373.387 281.291 369.824 283.435L341.333 300.533V308.149L373.547 301.707C380.48 300.32 387.531 300.32 394.464 301.707L426.677 308.149V300.533L398.187 283.435C396.436 282.383 395.024 280.851 394.118 279.021C393.213 277.191 392.851 275.139 393.077 273.109C394.144 263.531 394.677 253.813 394.677 244.245V188.587C394.677 187.104 394.986 185.637 395.584 184.281C396.183 182.924 397.057 181.707 398.152 180.707C399.247 179.708 400.539 178.947 401.944 178.475C403.35 178.002 404.838 177.828 406.315 177.963L490.677 185.632V172.789L401.696 140.427C399.639 139.678 397.861 138.314 396.606 136.52C395.35 134.726 394.677 132.59 394.677 130.4V62.7626C394.708 52.1009 390.925 41.7798 384.011 33.6639C377.109 41.7813 373.344 51.9786 373.344 62.7626V130.4C373.344 134.88 370.539 138.891 366.325 140.427L277.344 172.789V185.632L361.707 177.963C362.027 177.941 362.347 177.92 362.667 177.92ZM176.021 501.333C174.965 501.333 173.92 501.237 172.875 501.024L134.272 493.301C130.132 492.469 125.868 492.469 121.728 493.301L83.1361 501.024C80.8152 501.495 78.4185 501.441 76.1209 500.867C73.8234 500.293 71.683 499.213 69.8561 497.707C68.0226 496.208 66.5458 494.321 65.5328 492.18C64.5199 490.04 63.9963 487.701 64.0001 485.333V471.211C64.0001 463.765 67.9681 456.757 74.3574 452.917L97.0561 439.307C96.3594 431.201 96.0071 423.069 96.0001 414.933V370.955L23.2747 377.568C17.3014 378.101 11.3707 376.107 6.95474 372.075C2.53874 368.043 0.0107422 362.293 0.0107422 356.32V343.477C0.0107422 334.539 5.65341 326.475 14.0587 323.424L96.0107 293.632V233.451C96.0107 215.733 102.901 199.072 115.435 186.549C118.773 183.227 123.291 181.362 128 181.362C132.709 181.362 137.227 183.227 140.565 186.549C146.748 192.694 151.649 200.004 154.985 208.057C158.321 216.11 160.026 224.745 160 233.461V293.643L241.952 323.435C246.064 324.938 249.616 327.667 252.128 331.253C254.64 334.839 255.991 339.11 256 343.488V356.331C256 362.315 253.472 368.053 249.056 372.085C244.64 376.117 238.677 378.123 232.736 377.579L160.011 370.965V414.944C160.011 423.019 159.659 431.179 158.955 439.317L181.653 452.928C188.043 456.768 192.011 463.776 192.011 471.221V485.344C192.011 490.155 189.877 494.667 186.155 497.717C183.264 500.085 179.701 501.344 176.032 501.344L176.021 501.333ZM106.667 348.597C109.495 348.6 112.206 349.725 114.206 351.725C116.206 353.724 117.331 356.436 117.333 359.264V414.923C117.333 424.48 117.877 434.197 118.933 443.787C119.392 447.936 117.387 451.968 113.824 454.112L85.3334 471.2V478.816L117.547 472.373C124.48 470.987 131.531 470.987 138.464 472.373L170.677 478.816V471.2L142.187 454.112C140.436 453.061 139.024 451.529 138.118 449.698C137.213 447.868 136.851 445.816 137.077 443.787C138.144 434.197 138.677 424.48 138.677 414.923V359.264C138.677 357.781 138.986 356.315 139.584 354.958C140.183 353.601 141.057 352.384 142.152 351.385C143.247 350.385 144.539 349.625 145.944 349.152C147.35 348.679 148.838 348.505 150.315 348.64L234.677 356.309V343.467L145.696 311.115C143.639 310.366 141.861 309.002 140.606 307.208C139.35 305.414 138.677 303.278 138.677 301.088V233.44C138.708 222.778 134.925 212.457 128.011 204.341C121.109 212.459 117.344 222.656 117.344 233.44V301.088C117.344 305.568 114.539 309.579 110.325 311.115L21.3441 343.467V356.309L105.707 348.64C106.027 348.619 106.357 348.597 106.677 348.597H106.667Z" fill="#08105E"/>
</g>
<defs>
<clipPath id="clip0_74_2">
<rect width="512" height="512" fill="white"/>
</clipPath>
</defs>
</svg>
